# xmcd
#
# Track frame offsets:
#	150
#	15675
#	31209
#	49456
#	70703
#	88864
#	105504
#	124909
#	141916
#	159720
#	176861
#	196106
#	212363
#	231800
#	249459
#	268893
#	283577
#	299481
#
# Disc length: 4233 seconds
#
# Revision: 29
# Processed by: cddbd v1.5.2PL0 Copyright (c) Steve Scherf et al.
# Submitted via: EasyCDDAExtractor 15.3.0.1
#
DISCID=10108712
DTITLE=Nek - Lo Mejor De Nek - El Año Cero
DYEAR=2004
DGENRE=Latin
TTITLE0=Al Menos Ahora
TTITLE1=El Año Cero
TTITLE2=En Ti
TTITLE3=Corazones En Tempestades
TTITLE4=Angeles Del Ghetto
TTITLE5=Dime Por Que
TTITLE6=Tu Estas Aqui
TTITLE7=Laura No Esta
TTITLE8=Tu Nombre
TTITLE9=Si Se Que Te Tengo A Ti
TTITLE10=Quedate
TTITLE11=No Preguntes Por Que
TTITLE12=Llegas Tu
TTITLE13=En El Tren
TTITLE14=La Vida Es
TTITLE15=Tan Solo Tu
TTITLE16=Hablemos En Pasado
TTITLE17=Cielo Y Tierra
EXTD=YEAR: 2003
EXTT0=
EXTT1=
EXTT2=
EXTT3=
EXTT4=
EXTT5=
EXTT6=
EXTT7=
EXTT8=
EXTT9=
EXTT10=
EXTT11=
EXTT12=
EXTT13=
EXTT14=
EXTT15=
EXTT16=
EXTT17=
PLAYORDER=
